<svg width="450" height="269" viewBox="0 0 450 269" fill="none" xmlns="http://www.w3.org/2000/svg">
<g clip-path="url(#clip0_5_31)">
<path d="M344.531 265.958C338.769 261.091 335.27 253.401 336.188 245.916C337.105 238.43 342.79 231.549 350.163 229.959C357.536 228.37 365.941 232.77 368.18 239.971C369.413 226.087 370.833 211.621 378.216 199.798C384.9 189.092 396.479 181.431 409.027 180.061C421.575 178.69 434.787 183.866 442.613 193.769C450.439 203.672 452.355 218.069 446.874 229.438C442.836 237.813 435.397 244.046 427.603 249.117C402.418 265.365 372.211 271.972 342.541 267.723L344.531 265.958Z" fill="#F2F2F2"/>
<path d="M430.204 184.153C419.85 192.585 410.352 202.016 401.846 212.309C388.534 228.362 377.762 246.361 369.905 265.678C369.33 267.087 371.618 267.701 372.187 266.307C385.043 234.913 405.565 207.243 431.878 185.827C433.059 184.865 431.376 183.199 430.204 184.153Z" fill="white"/>
<path d="M144.862 264.636C152.775 257.95 157.582 247.389 156.321 237.108C155.061 226.826 147.254 217.374 137.127 215.191C127 213.008 115.456 219.052 112.38 228.943C110.687 209.873 108.736 190.004 98.596 173.764C89.4143 159.06 73.5115 148.538 56.2765 146.655C39.0414 144.773 20.8951 151.882 10.1462 165.484C-0.602636 179.086 -3.23445 198.859 4.29378 214.475C9.83956 225.979 20.0569 234.54 30.762 241.505C64.9152 263.725 107.282 272.992 147.595 267.06" fill="#F2F2F2"/>
<path d="M27.1897 152.277C41.4107 163.858 54.4571 176.811 66.1399 190.949C77.8247 205.072 88.1118 220.294 96.8569 236.403C101.745 245.439 106.136 254.736 110.011 264.251C110.801 266.186 107.657 267.029 106.876 265.115C100.013 248.34 91.5228 232.278 81.5264 217.159C71.5786 202.095 60.1927 188.032 47.5288 175.166C40.366 167.893 32.8087 161.019 24.8911 154.575C23.2682 153.254 25.5802 150.966 27.1897 152.277L27.1897 152.277Z" fill="white"/>
<path d="M323.017 268.411H134.224V74.731C134.224 33.5241 167.753 0 208.965 0H248.276C289.488 0 323.017 33.5241 323.017 74.731V268.411Z" fill="#F2F2F2"/>
<path d="M283.707 268.411H134.224V74.731C134.183 58.9415 139.183 43.551 148.498 30.8004C148.841 30.3325 149.184 29.8706 149.537 29.4138C154.042 23.5057 159.404 18.3025 165.444 13.976C165.785 13.7277 166.128 13.4838 166.476 13.2399C171.53 9.74245 176.998 6.88339 182.754 4.72776C183.096 4.59821 183.444 4.46841 183.792 4.34391C188.998 2.48628 194.395 1.2138 199.883 0.549993C200.223 0.503525 200.572 0.467163 200.922 0.430801C206.269 -0.140915 211.663 -0.140915 217.011 0.430801C217.359 0.467163 217.708 0.50352 218.052 0.55049C223.539 1.21435 228.934 2.48666 234.139 4.34393C234.487 4.46843 234.835 4.59822 235.178 4.72802C240.863 6.85647 246.267 9.67286 251.267 13.1144C251.615 13.353 251.963 13.5969 252.305 13.8409C255.691 16.2575 258.871 18.9497 261.814 21.8901C264.173 24.2486 266.372 26.7627 268.395 29.4153C268.747 29.8706 269.09 30.3325 269.433 30.7997C278.747 43.5504 283.748 58.9412 283.707 74.731V268.411Z" fill="#CCCCCC"/>
<path d="M271.552 181.785C276.122 181.785 279.828 178.08 279.828 173.51C279.828 168.94 276.122 165.236 271.552 165.236C266.981 165.236 263.276 168.94 263.276 173.51C263.276 178.08 266.981 181.785 271.552 181.785Z" fill="#F78F28"/>
<path d="M307.551 262.61H301.21L298.193 238.154L307.552 238.155L307.551 262.61Z" fill="#FFB8B8"/>
<path d="M296.68 260.798H308.91V268.497H288.98C288.98 267.486 289.179 266.485 289.566 265.551C289.953 264.617 290.52 263.768 291.235 263.053C291.95 262.338 292.799 261.771 293.733 261.384C294.668 260.997 295.669 260.798 296.68 260.798Z" fill="#2F2E41"/>
<path d="M339.103 262.61H332.762L329.745 238.154L339.104 238.155L339.103 262.61Z" fill="#FFB8B8"/>
<path d="M328.232 260.798H340.461V268.497H320.532C320.532 267.486 320.731 266.485 321.118 265.551C321.505 264.617 322.072 263.768 322.787 263.053C323.502 262.338 324.351 261.771 325.285 261.384C326.219 260.997 327.221 260.798 328.232 260.798Z" fill="#2F2E41"/>
<path d="M275.74 175.15C275.284 174.478 274.981 173.714 274.852 172.912C274.723 172.11 274.771 171.29 274.994 170.508C275.216 169.727 275.607 169.004 276.139 168.391C276.671 167.777 277.331 167.287 278.073 166.956L299.63 107.551L310.237 113.338L285.624 170.109C286.098 171.391 286.084 172.803 285.586 174.077C285.088 175.351 284.14 176.397 282.922 177.019C281.703 177.64 280.299 177.793 278.976 177.449C277.652 177.104 276.501 176.286 275.74 175.15Z" fill="#FFB8B8"/>
<path d="M335.864 186.312C335.159 185.908 334.551 185.355 334.084 184.691C333.616 184.026 333.3 183.268 333.157 182.468C333.015 181.669 333.049 180.847 333.258 180.063C333.467 179.278 333.846 178.548 334.367 177.926L327.689 115.085L339.761 115.636L342.536 177.448C343.524 178.394 344.131 179.669 344.242 181.032C344.353 182.395 343.96 183.751 343.137 184.844C342.315 185.936 341.12 186.689 339.78 186.96C338.439 187.231 337.046 187 335.864 186.312Z" fill="#FFB8B8"/>
<path d="M316.606 96.5471C323.623 96.5471 329.31 90.8601 329.31 83.8449C329.31 76.8297 323.623 71.1427 316.606 71.1427C309.59 71.1427 303.903 76.8297 303.903 83.8449C303.903 90.8601 309.59 96.5471 316.606 96.5471Z" fill="#FFB8B8"/>
<path d="M335.783 172.02H297.482L297.529 171.722C297.597 171.277 304.354 127.019 299.371 112.54C298.871 111.117 298.915 109.559 299.494 108.167C300.074 106.774 301.148 105.645 302.51 104.997H302.51C309.634 101.643 323.307 97.5133 334.848 107.536C336.546 109.035 337.873 110.909 338.722 113.009C339.571 115.109 339.92 117.378 339.741 119.636L335.783 172.02Z" fill="#F78F28"/>
<path d="M304.838 133.559L287.595 130.062L295.678 110.911C296.162 109.056 297.361 107.469 299.014 106.497C300.667 105.526 302.637 105.249 304.493 105.728C306.35 106.207 307.94 107.403 308.916 109.053C309.891 110.703 310.173 112.673 309.698 114.53L304.838 133.559Z" fill="#F78F28"/>
<path d="M326.923 140.054L325.886 116.294C325.1 111.828 327.657 107.606 331.59 106.916C335.524 106.228 339.365 109.326 340.154 113.825L344.051 136.026L326.923 140.054Z" fill="#F78F28"/>
<path d="M334.508 169.176C340.671 192.643 341.343 222.48 339.681 255.026L331.405 253.992L316.405 191.931L308.129 255.026L298.819 254.509C296.037 220.36 293.329 191.044 297.784 171.762L334.508 169.176Z" fill="#2F2E41"/>
<path d="M324.977 93.6615C322.607 96.1857 318.206 94.8307 317.897 91.3823C317.873 91.1146 317.874 90.8451 317.902 90.5777C318.062 89.0502 318.944 87.6634 318.733 86.0506C318.685 85.6492 318.535 85.2667 318.298 84.9393C316.41 82.4107 311.976 86.0703 310.194 83.7812C309.101 82.3776 310.386 80.1676 309.547 78.5989C308.44 76.5283 305.162 77.5497 303.105 76.4158C300.818 75.1542 300.955 71.6448 302.461 69.5102C304.297 66.907 307.517 65.5179 310.697 65.3177C313.877 65.1175 317.035 65.977 320.003 67.1337C323.376 68.448 326.721 70.2644 328.797 73.2299C331.321 76.8362 331.564 81.6845 330.301 85.9014C329.533 88.4666 326.912 91.6003 324.977 93.6615Z" fill="#2F2E41"/>
<path d="M434.473 268.744H52.597C52.434 268.743 52.2778 268.678 52.1627 268.563C52.0476 268.448 51.983 268.291 51.983 268.128C51.983 267.965 52.0476 267.809 52.1627 267.693C52.2778 267.578 52.434 267.513 52.597 267.512H434.473C434.636 267.513 434.792 267.578 434.908 267.693C435.023 267.809 435.087 267.965 435.087 268.128C435.087 268.291 435.023 268.448 434.908 268.563C434.792 268.678 434.636 268.743 434.473 268.744Z" fill="#3F3D56"/>
<path d="M242.586 212.298H175.345C174.459 212.303 173.608 211.956 172.978 211.334C172.347 210.712 171.99 209.866 171.983 208.98V58.9136C171.99 58.0281 172.347 57.1816 172.978 56.5596C173.608 55.9376 174.459 55.591 175.345 55.5957H242.586C243.472 55.591 244.323 55.9376 244.953 56.5596C245.584 57.1816 245.941 58.0281 245.948 58.9136V208.98C245.941 209.866 245.584 210.712 244.953 211.334C244.323 211.956 243.472 212.303 242.586 212.298Z" fill="white"/>
<path d="M245.948 104.153H171.983V105.187H245.948V104.153Z" fill="#CCCCCC"/>
<path d="M246.207 163.167H172.241V164.201H246.207V163.167Z" fill="#CCCCCC"/>
<path d="M196.293 55.5958H195.259V212.815H196.293V55.5958Z" fill="#CCCCCC"/>
<path d="M222.155 55.5958H221.121V212.815H222.155V55.5958Z" fill="#CCCCCC"/>
</g>
<defs>
<clipPath id="clip0_5_31">
<rect width="450" height="269" fill="white"/>
</clipPath>
</defs>
</svg>
